<svg xmlns="http://www.w3.org/2000/svg" width="36" height="36" viewBox="0 0 36 36.000001"><path d="M17.474.267c-1.55 0-3.054.184-4.509.552-1.455.368-2.798.92-4.029 1.655v7.219c1.2-1.055 2.47-1.839 3.814-2.35 1.343-.528 2.638-.792 3.885-.792.576 0 1.095.088 1.559.264.48.176.88.416 1.2.72.335.303.59.67.767 1.103.175.415.263.871.263 1.367 0 .575-.08 1.103-.24 1.583-.16.463-.4.919-.719 1.367-.32.431-.711.871-1.175 1.319-.448.431-.975.903-1.583 1.415-.576.48-1.08.967-1.511 1.463-.432.48-.792.991-1.08 1.535a6.82 6.82 0 0 0-.647 1.703 8.747 8.747 0 0 0-.216 2.014c0 .464.04.96.12 1.487.096.512.224.976.384 1.391h6.308a3.673 3.673 0 0 1-.432-1.007 5.025 5.025 0 0 1-.144-1.175c0-.56.072-1.056.216-1.487.144-.448.352-.864.623-1.247.288-.4.64-.8 1.056-1.2.431-.4.927-.831 1.487-1.295a31.64 31.64 0 0 0 2.206-1.99 11.67 11.67 0 0 0 1.607-2.039c.432-.703.76-1.447.983-2.23.224-.8.336-1.687.336-2.663 0-1.535-.272-2.846-.815-3.933a7.102 7.102 0 0 0-2.23-2.71c-.944-.704-2.055-1.215-3.334-1.535-1.28-.336-2.663-.504-4.15-.504zm-.215 27.605c-1.28 0-2.343.376-3.19 1.128-.848.751-1.271 1.687-1.271 2.806 0 1.087.423 2.03 1.27 2.83.848.767 1.911 1.151 3.19 1.151 1.28 0 2.335-.376 3.166-1.127.816-.752 1.224-1.703 1.224-2.854 0-1.135-.416-2.07-1.248-2.806-.831-.752-1.878-1.128-3.141-1.128z" style="line-height:125%;-inkscape-font-specification:'Segoe UI Bold'" font-weight="700" font-size="40" font-family="Segoe UI" letter-spacing="0" word-spacing="0" fill="#ececec"/></svg>